<svg width="171" height="66" viewBox="0 0 171 66" fill="none" xmlns="http://www.w3.org/2000/svg">
	<path fill-rule="evenodd" clip-rule="evenodd" d="M40 -0.00019455V31.5002V53.9998V54.5002L20 66.0002L0 54.5002V53.9998V31.5002V-0.00019455H40Z" fill="#00BB00" />
	<path d="M56.565 60.132C58.006 60.132 58.886 59.604 59.689 58.768L58.82 57.888C58.16 58.504 57.555 58.878 56.609 58.878C55.135 58.878 54.068 57.657 54.068 56.15V56.128C54.068 54.621 55.146 53.422 56.598 53.422C57.489 53.422 58.138 53.796 58.765 54.368L59.634 53.367C58.897 52.663 58.039 52.168 56.609 52.168C54.288 52.168 52.649 53.961 52.649 56.15V56.172C52.649 58.383 54.31 60.132 56.565 60.132ZM63.8414 60.132C65.6344 60.132 66.9544 58.757 66.9544 57.107V57.085C66.9544 55.424 65.6454 54.071 63.8634 54.071C62.0814 54.071 60.7614 55.446 60.7614 57.107V57.129C60.7614 58.779 62.0704 60.132 63.8414 60.132ZM63.8634 58.966C62.8294 58.966 62.0924 58.119 62.0924 57.107V57.085C62.0924 56.073 62.7744 55.237 63.8414 55.237C64.8864 55.237 65.6234 56.084 65.6234 57.107V57.129C65.6234 58.13 64.9414 58.966 63.8634 58.966ZM68.5189 60H69.8609V57.789C69.8609 56.249 70.6749 55.49 71.8409 55.49H71.9179V54.082C70.8949 54.038 70.2239 54.632 69.8609 55.501V54.192H68.5189V60ZM75.7625 60.132C76.8295 60.132 77.5885 59.703 78.1385 59.043L77.3575 58.35C76.8955 58.801 76.4335 59.043 75.7845 59.043C74.9265 59.043 74.2555 58.515 74.1125 57.569H78.3805C78.3915 57.437 78.4025 57.316 78.4025 57.195C78.4025 55.523 77.4675 54.071 75.6195 54.071C73.9585 54.071 72.7815 55.435 72.7815 57.096V57.118C72.7815 58.911 74.0795 60.132 75.7625 60.132ZM74.1015 56.689C74.2225 55.787 74.7945 55.16 75.6085 55.16C76.4885 55.16 76.9945 55.831 77.0825 56.689H74.1015ZM83.631 60H86.502C88.922 60 90.594 58.317 90.594 56.15V56.128C90.594 53.961 88.922 52.3 86.502 52.3H83.631V60ZM86.502 53.532C88.119 53.532 89.175 54.643 89.175 56.15V56.172C89.175 57.679 88.119 58.768 86.502 58.768H84.984V53.532H86.502ZM95.0625 60.132C96.8555 60.132 98.1755 58.757 98.1755 57.107V57.085C98.1755 55.424 96.8665 54.071 95.0845 54.071C93.3025 54.071 91.9825 55.446 91.9825 57.107V57.129C91.9825 58.779 93.2915 60.132 95.0625 60.132ZM95.0845 58.966C94.0505 58.966 93.3135 58.119 93.3135 57.107V57.085C93.3135 56.073 93.9955 55.237 95.0625 55.237C96.1075 55.237 96.8445 56.084 96.8445 57.107V57.129C96.8445 58.13 96.1625 58.966 95.0845 58.966ZM102.435 60.132C103.568 60.132 104.239 59.681 104.811 59.043L104.008 58.251C103.579 58.68 103.128 58.966 102.501 58.966C101.478 58.966 100.763 58.141 100.763 57.107V57.085C100.763 56.073 101.478 55.237 102.446 55.237C103.106 55.237 103.535 55.545 103.942 55.963L104.778 55.072C104.228 54.478 103.546 54.071 102.457 54.071C100.708 54.071 99.432 55.457 99.432 57.107V57.129C99.432 58.779 100.708 60.132 102.435 60.132ZM108.246 60.121C109.148 60.121 109.687 59.648 110.061 59.098V60H111.403V54.192H110.061V57.47C110.061 58.372 109.522 58.9 108.752 58.9C107.96 58.9 107.509 58.394 107.509 57.492V54.192H106.178V57.888C106.178 59.241 106.937 60.121 108.246 60.121ZM113.275 60H114.617V56.722C114.617 55.831 115.123 55.281 115.86 55.281C116.597 55.281 117.037 55.787 117.037 56.689V60H118.368V56.722C118.368 55.787 118.885 55.281 119.611 55.281C120.359 55.281 120.788 55.776 120.788 56.7V60H122.119V56.293C122.119 54.874 121.349 54.071 120.084 54.071C119.204 54.071 118.588 54.478 118.126 55.094C117.818 54.478 117.224 54.071 116.388 54.071C115.497 54.071 114.991 54.555 114.617 55.072V54.192H113.275V60ZM126.609 60.132C127.676 60.132 128.435 59.703 128.985 59.043L128.204 58.35C127.742 58.801 127.28 59.043 126.631 59.043C125.773 59.043 125.102 58.515 124.959 57.569H129.227C129.238 57.437 129.249 57.316 129.249 57.195C129.249 55.523 128.314 54.071 126.466 54.071C124.805 54.071 123.628 55.435 123.628 57.096V57.118C123.628 58.911 124.926 60.132 126.609 60.132ZM124.948 56.689C125.069 55.787 125.641 55.16 126.455 55.16C127.335 55.16 127.841 55.831 127.929 56.689H124.948ZM130.795 60H132.137V56.722C132.137 55.82 132.676 55.281 133.446 55.281C134.238 55.281 134.689 55.798 134.689 56.7V60H136.02V56.293C136.02 54.951 135.261 54.071 133.952 54.071C133.05 54.071 132.511 54.544 132.137 55.083V54.192H130.795V60ZM139.794 60.099C140.3 60.099 140.663 59.989 140.993 59.802V58.713C140.729 58.845 140.465 58.911 140.168 58.911C139.717 58.911 139.453 58.702 139.453 58.185V55.336H141.015V54.192H139.453V52.597H138.122V54.192H137.385V55.336H138.122V58.394C138.122 59.67 138.815 60.099 139.794 60.099ZM144.262 60.121C145.153 60.121 145.758 59.747 146.154 59.274V60H147.452V56.557C147.452 55.798 147.254 55.182 146.825 54.764C146.418 54.346 145.769 54.115 144.9 54.115C143.976 54.115 143.349 54.302 142.7 54.588L143.063 55.633C143.591 55.413 144.075 55.27 144.724 55.27C145.659 55.27 146.165 55.71 146.165 56.535V56.678C145.714 56.535 145.252 56.436 144.603 56.436C143.184 56.436 142.194 57.052 142.194 58.306V58.328C142.194 59.494 143.173 60.121 144.262 60.121ZM144.636 59.153C143.998 59.153 143.503 58.834 143.503 58.273V58.251C143.503 57.646 144.009 57.283 144.867 57.283C145.395 57.283 145.846 57.382 146.187 57.514V57.91C146.187 58.647 145.516 59.153 144.636 59.153ZM151.159 60.099C151.665 60.099 152.028 59.989 152.358 59.802V58.713C152.094 58.845 151.83 58.911 151.533 58.911C151.082 58.911 150.818 58.702 150.818 58.185V55.336H152.38V54.192H150.818V52.597H149.487V54.192H148.75V55.336H149.487V58.394C149.487 59.67 150.18 60.099 151.159 60.099ZM153.976 53.301H155.406V52.036H153.976V53.301ZM154.02 60H155.362V54.192H154.02V60ZM160.083 60.132C161.876 60.132 163.196 58.757 163.196 57.107V57.085C163.196 55.424 161.887 54.071 160.105 54.071C158.323 54.071 157.003 55.446 157.003 57.107V57.129C157.003 58.779 158.312 60.132 160.083 60.132ZM160.105 58.966C159.071 58.966 158.334 58.119 158.334 57.107V57.085C158.334 56.073 159.016 55.237 160.083 55.237C161.128 55.237 161.865 56.084 161.865 57.107V57.129C161.865 58.13 161.183 58.966 160.105 58.966ZM164.76 60H166.102V56.722C166.102 55.82 166.641 55.281 167.411 55.281C168.203 55.281 168.654 55.798 168.654 56.7V60H169.985V56.293C169.985 54.951 169.226 54.071 167.917 54.071C167.015 54.071 166.476 54.544 166.102 55.083V54.192H164.76V60Z" fill="#00BB00" />
	<path fill-rule="evenodd" clip-rule="evenodd" d="M20 28.1085L7.10359 35.5543V50.4457L20 57.8915L32.8964 50.4457V35.5543L20 28.1085ZM33.8564 35L20 27L6.14359 35V51L20 59L33.8564 51V35Z" fill="white" />
	<path fill-rule="evenodd" clip-rule="evenodd" d="M22.9633 39.9582C22.0308 39.5906 21.0265 39.3986 20.0122 39.3986C17.8805 39.3986 15.8753 40.2355 14.3661 41.7551C12.8635 43.2681 12.0287 45.2778 12.0153 47.4141L12.0135 47.701L12.2628 47.8428C13.4642 48.5263 14.8228 48.8859 16.1995 48.8859C16.2374 48.8859 16.2755 48.8857 16.3135 48.8851C17.5135 48.8678 18.7008 48.5792 19.7772 48.0466C19.4378 47.8568 19.1125 47.643 18.8033 47.4073C16.9272 48.1464 14.801 48.0553 13.0016 47.1296C13.1766 43.3808 16.2631 40.3779 20.0122 40.3779C21.055 40.3779 22.085 40.6085 23.0152 41.0468C23.0272 40.6839 23.01 40.3202 22.9633 39.9582Z" fill="white" />
	<path fill-rule="evenodd" clip-rule="evenodd" d="M28.0091 47.3475C27.9806 44.6916 26.6873 42.2683 24.5314 40.7922C24.533 41.1809 24.507 41.5693 24.4536 41.9554C25.9855 43.2062 26.9195 45.0481 27.0216 47.066C23.7172 48.7687 19.5961 47.5763 17.7189 44.3225C17.2119 43.4436 16.901 42.4609 16.8096 41.4568C16.4907 41.6307 16.1861 41.8308 15.8985 42.0552C16.0502 43.0215 16.3797 43.9598 16.8714 44.8121C17.9392 46.663 19.656 47.99 21.7053 48.5485C22.4006 48.7381 23.1075 48.8318 23.8105 48.8318C25.1803 48.8318 26.5355 48.4759 27.7617 47.7785L28.0122 47.6359L28.0091 47.3475Z" fill="white" />
	<path fill-rule="evenodd" clip-rule="evenodd" d="M20.2949 33.865L20.0477 33.72L19.8005 33.8648C18.5791 34.5795 17.5644 35.6044 16.8659 36.8284C16.2628 37.8854 15.9061 39.0695 15.8224 40.2782C16.1568 40.0794 16.5051 39.9047 16.8653 39.7553C17.1755 37.7629 18.3342 35.9621 20.0473 34.8617C23.1936 36.8848 24.2283 41.0793 22.3384 44.355C21.8266 45.2421 21.1268 46.0091 20.2977 46.5981C20.6074 46.7869 20.9326 46.9508 21.2704 47.0879C22.0369 46.4665 22.6894 45.7053 23.1859 44.8446C25.3925 41.0201 24.0955 36.0946 20.2949 33.865Z" fill="white" />
	<path fill-rule="evenodd" clip-rule="evenodd" d="M20.0428 42.222C19.5921 42.222 19.2254 42.589 19.2254 43.04C19.2254 43.4911 19.5921 43.858 20.0428 43.858C20.4936 43.858 20.8603 43.4911 20.8603 43.04C20.8603 42.589 20.4936 42.222 20.0428 42.222ZM20.0428 44.8373C19.0525 44.8373 18.2468 44.0311 18.2468 43.04C18.2468 42.049 19.0525 41.2427 20.0428 41.2427C21.0332 41.2427 21.8389 42.049 21.8389 43.04C21.8389 44.0311 21.0332 44.8373 20.0428 44.8373Z" fill="white" />
	<path d="M57.22 40H59.68V28.28H64.14V26H52.76V28.28H57.22V40ZM69.0045 40.24C70.9445 40.24 72.3245 39.46 73.3245 38.26L71.9045 37C71.0645 37.82 70.2245 38.26 69.0445 38.26C67.4845 38.26 66.2645 37.3 66.0045 35.58H73.7645C73.7845 35.34 73.8045 35.12 73.8045 34.9C73.8045 31.86 72.1045 29.22 68.7445 29.22C65.7245 29.22 63.5845 31.7 63.5845 34.72V34.76C63.5845 38.02 65.9445 40.24 69.0045 40.24ZM65.9845 33.98C66.2045 32.34 67.2445 31.2 68.7245 31.2C70.3245 31.2 71.2445 32.42 71.4045 33.98H65.9845ZM76.2148 40H78.6548V34.04C78.6548 32.4 79.6348 31.42 81.0348 31.42C82.4748 31.42 83.2948 32.36 83.2948 34V40H85.7148V33.26C85.7148 30.82 84.3348 29.22 81.9548 29.22C80.3148 29.22 79.3348 30.08 78.6548 31.06V29.44H76.2148V40ZM92.9972 40.22C94.7172 40.22 95.8172 39.34 96.5972 38.24V40H99.0172V25.4H96.5972V31.08C95.8372 30.08 94.7372 29.22 92.9972 29.22C90.4772 29.22 88.0972 31.2 88.0972 34.7V34.74C88.0972 38.24 90.5172 40.22 92.9972 40.22ZM93.5772 38.12C91.9372 38.12 90.5372 36.78 90.5372 34.74V34.7C90.5372 32.62 91.9172 31.32 93.5772 31.32C95.1972 31.32 96.6372 32.66 96.6372 34.7V34.74C96.6372 36.76 95.1972 38.12 93.5772 38.12ZM106.895 40.24C108.835 40.24 110.215 39.46 111.215 38.26L109.795 37C108.955 37.82 108.115 38.26 106.935 38.26C105.375 38.26 104.155 37.3 103.895 35.58H111.655C111.675 35.34 111.695 35.12 111.695 34.9C111.695 31.86 109.995 29.22 106.635 29.22C103.615 29.22 101.475 31.7 101.475 34.72V34.76C101.475 38.02 103.835 40.24 106.895 40.24ZM103.875 33.98C104.095 32.34 105.135 31.2 106.615 31.2C108.215 31.2 109.135 32.42 109.295 33.98H103.875ZM114.105 40H116.545V35.98C116.545 33.18 118.025 31.8 120.145 31.8H120.285V29.24C118.425 29.16 117.205 30.24 116.545 31.82V29.44H114.105V40ZM122.367 40H124.807V34.04C124.807 32.42 125.727 31.42 127.067 31.42C128.407 31.42 129.207 32.34 129.207 33.98V40H131.627V34.04C131.627 32.34 132.567 31.42 133.887 31.42C135.247 31.42 136.027 32.32 136.027 34V40H138.447V33.26C138.447 30.68 137.047 29.22 134.747 29.22C133.147 29.22 132.027 29.96 131.187 31.08C130.627 29.96 129.547 29.22 128.027 29.22C126.407 29.22 125.487 30.1 124.807 31.04V29.44H122.367V40ZM141.412 27.82H144.012V25.52H141.412V27.82ZM141.492 40H143.932V29.44H141.492V40ZM147.074 40H149.514V34.04C149.514 32.4 150.494 31.42 151.894 31.42C153.334 31.42 154.154 32.36 154.154 34V40H156.574V33.26C156.574 30.82 155.194 29.22 152.814 29.22C151.174 29.22 150.194 30.08 149.514 31.06V29.44H147.074V40ZM163.037 40.18C163.957 40.18 164.617 39.98 165.217 39.64V37.66C164.737 37.9 164.257 38.02 163.717 38.02C162.897 38.02 162.417 37.64 162.417 36.7V31.52H165.257V29.44H162.417V26.54H159.997V29.44H158.657V31.52H159.997V37.08C159.997 39.4 161.257 40.18 163.037 40.18Z" fill="black" />
</svg>
