<svg width="22" height="22" viewBox="0 0 22 22" fill="none" xmlns="http://www.w3.org/2000/svg">
<path fill-rule="evenodd" clip-rule="evenodd" d="M22 11C22 17.0751 17.0751 22 11 22C4.92487 22 0 17.0751 0 11C0 4.92487 4.92487 0 11 0C17.0751 0 22 4.92487 22 11ZM12 6C12 5.44772 11.5523 5 11 5C10.4477 5 10 5.44772 10 6V12C10 12.5523 10.4477 13 11 13C11.5523 13 12 12.5523 12 12V6ZM12 15.99C12 15.4377 11.5523 14.99 11 14.99C10.4477 14.99 10 15.4377 10 15.99V16.01C10 16.5623 10.4477 17.01 11 17.01C11.5523 17.01 12 16.5623 12 16.01V15.99Z" fill="#E6900A"/>
</svg>
