<svg width="24" height="24" viewBox="0 0 24 24" fill="none" xmlns="http://www.w3.org/2000/svg">
<path fill-rule="evenodd" clip-rule="evenodd" d="M12 23C18.0751 23 23 18.0751 23 12C23 5.92487 18.0751 1 12 1C5.92487 1 1 5.92487 1 12C1 18.0751 5.92487 23 12 23Z" stroke="var(--color-primary, blue)" stroke-width="1.5"/>
<path fill-rule="evenodd" clip-rule="evenodd" d="M13.5 6.5C13.5 5.6715 12.8285 5 12 5C11.1715 5 10.5 5.6715 10.5 6.5C10.5 7.3285 11.1715 8 12 8C12.8285 8 13.5 7.3285 13.5 6.5ZM10 17.5V18.5H14V17.5H13V10H10V11H11V17.5H10Z" fill="var(--color-primary, blue)"/>
</svg>
