<svg width="20" height="22" viewBox="0 0 20 22" fill="none" xmlns="http://www.w3.org/2000/svg">
<path fill-rule="evenodd" clip-rule="evenodd" d="M6.98778 1.05104C5.72494 1.83318 4.01138 2.89448 0 3.66667C0 13.2917 4.28571 18.7917 10 22C15.7143 18.7917 20 13.2917 20 3.66667C15.9886 2.89448 14.2751 1.83318 13.0122 1.05104C12.0264 0.440459 11.3152 0 10 0C8.68478 0 7.97362 0.440459 6.98778 1.05104ZM11 6C11 5.44772 10.5523 5 10 5C9.44771 5 9 5.44772 9 6V12C9 12.5523 9.44771 13 10 13C10.5523 13 11 12.5523 11 12V6ZM11 15.99C11 15.4377 10.5523 14.99 10 14.99C9.44771 14.99 9 15.4377 9 15.99V16.01C9 16.5623 9.44771 17.01 10 17.01C10.5523 17.01 11 16.5623 11 16.01V15.99Z" fill="#DD285E"/>
</svg>
