<?xml version="1.0" encoding="UTF-8"?>
<svg width="254px" height="256px" viewBox="0 0 254 256" version="1.1" 
  xmlns="http://www.w3.org/2000/svg" 
  xmlns:xlink="http://www.w3.org/1999/xlink">
  <!-- Generator: Sketch 52.6 (67491) - http://www.bohemiancoding.com/sketch -->
  <title>Group</title>
  <desc>Created with Sketch.</desc>
  <g id="Page-1" stroke="none" stroke-width="1" fill="none" fill-rule="evenodd" opacity="0.3">
    <g id="stars" transform="translate(-2.000000, 0.000000)">
      <g id="Group" transform="translate(2.000000, 0.000000)">
        <path d="M7.44910223,229.497564 C7.85486963,229.100104 8.51049381,229.100104 8.91426236,229.497564 C9.32002977,229.895024 9.32002977,230.53815 8.91426236,230.935611 C8.51049381,231.333071 7.85486963,231.333071 7.44910223,230.935611 C7.04533368,230.53815 7.04533368,229.895024 7.44910223,229.497564" id="Fill-546" fill="#8B9DC2"></path>
        <path d="M56.9969003,207.158706 C57.4006688,206.761246 58.0582919,206.761246 58.4620604,207.158706 C58.8678278,207.556166 58.8678278,208.199292 58.4620604,208.596753 C58.0582919,208.994213 57.4006688,208.994213 56.9969003,208.596753 C56.5911329,208.199292 56.5911329,207.556166 56.9969003,207.158706" id="Fill-548" fill="#8B9DC2"></path>
        <path d="M55.6528707,231.696777 C56.0586381,231.299316 56.7142623,231.299316 57.1180308,231.696777 C57.5237982,232.094237 57.5237982,232.737363 57.1180308,233.134823 C56.7142623,233.532284 56.0586381,233.532284 55.6528707,233.134823 C55.2471033,232.737363 55.2471033,232.094237 55.6528707,231.696777" id="Fill-550" fill="#8B9DC2"></path>
        <path d="M72.4508417,253.708878 C72.8566091,253.311418 73.5122333,253.311418 73.9160019,253.708878 C74.3217693,254.106338 74.3217693,254.749465 73.9160019,255.146925 C73.5122333,255.544385 72.8566091,255.544385 72.4508417,255.146925 C72.0450743,254.749465 72.0450743,254.106338 72.4508417,253.708878" id="Fill-552" fill="#8B9DC2"></path>
        <path d="M118.03791,222.357861 C118.443678,221.960401 119.099302,221.960401 119.50307,222.357861 C119.908838,222.755322 119.908838,223.398448 119.50307,223.795908 C119.099302,224.193368 118.443678,224.193368 118.03791,223.795908 C117.632143,223.398448 117.632143,222.755322 118.03791,222.357861" id="Fill-554" fill="#8B9DC2"></path>
        <path d="M137.434192,243.900001 C137.839959,243.502541 138.495583,243.502541 138.899352,243.900001 C139.305119,244.297462 139.305119,244.940588 138.899352,245.338048 C138.495583,245.735508 137.839959,245.735508 137.434192,245.338048 C137.028424,244.940588 137.028424,244.297462 137.434192,243.900001" id="Fill-558" fill="#8B9DC2"></path>
        <path d="M143.73518,183.746306 C144.138948,183.348846 144.796571,183.348846 145.20034,183.746306 C145.606107,184.143766 145.606107,184.786893 145.20034,185.184353 C144.796571,185.581813 144.138948,185.581813 143.73518,185.184353 C143.329412,184.786893 143.329412,184.143766 143.73518,183.746306" id="Fill-560" fill="#8B9DC2"></path>
        <path d="M123.863771,127.870001 C124.267539,127.472541 124.925162,127.472541 125.328931,127.870001 C125.734698,128.267461 125.734698,128.910588 125.328931,129.308048 C124.925162,129.705508 124.267539,129.705508 123.863771,129.308048 C123.458003,128.910588 123.458003,128.267461 123.863771,127.870001" id="Fill-562" fill="#8B9DC2"></path>
        <path d="M116.003077,169.522426 C116.408844,169.124966 117.064468,169.124966 117.468237,169.522426 C117.874004,169.919886 117.874004,170.563013 117.468237,170.960473 C117.064468,171.357933 116.408844,171.357933 116.003077,170.960473 C115.597309,170.563013 115.597309,169.919886 116.003077,169.522426" id="Fill-564" fill="#8B9DC2"></path>
        <path d="M34.5135882,217.067247 C34.9193556,216.669787 35.5749798,216.669787 35.9787484,217.067247 C36.3845158,217.464708 36.3845158,218.107834 35.9787484,218.505294 C35.5749798,218.902754 34.9193556,218.902754 34.5135882,218.505294 C34.1078208,218.107834 34.1078208,217.464708 34.5135882,217.067247" id="Fill-566" fill="#8B9DC2"></path>
        <path d="M73.9197997,59.8647703 C74.3255671,59.4673102 74.9811913,59.4673102 75.3849598,59.8647703 C75.7907272,60.2622305 75.7907272,60.9053569 75.3849598,61.3028171 C74.9811913,61.7002772 74.3255671,61.7002772 73.9197997,61.3028171 C73.5140323,60.9053569 73.5140323,60.2622305 73.9197997,59.8647703" id="Fill-568" fill="#8B9DC2"></path>
        <path d="M93.0728207,34.009289 C93.4765893,33.6118288 94.1342123,33.6118288 94.5379809,34.009289 C94.9437483,34.4067491 94.9437483,35.0498756 94.5379809,35.4473357 C94.1342123,35.8447959 93.4765893,35.8447959 93.0728207,35.4473357 C92.6670533,35.0498756 92.6670533,34.4067491 93.0728207,34.009289" id="Fill-570" fill="#8B9DC2"></path>
        <path d="M4.63031802,155.667245 C5.03608542,155.269785 5.69170961,155.269785 6.09547816,155.667245 C6.50124556,156.064705 6.50124556,156.707832 6.09547816,157.105292 C5.69170961,157.502752 5.03608542,157.502752 4.63031802,157.105292 C4.22455061,156.707832 4.22455061,156.064705 4.63031802,155.667245" id="Fill-606" fill="#8B9DC2"></path>
        <path d="M27.3019221,137.509308 C27.7076895,137.111848 28.3633137,137.111848 28.7670823,137.509308 C29.1728497,137.906768 29.1728497,138.549895 28.7670823,138.947355 C28.3633137,139.344815 27.7076895,139.344815 27.3019221,138.947355 C26.8961547,138.549895 26.8961547,137.906768 27.3019221,137.509308" id="Fill-610" fill="#8B9DC2"></path>
        <path d="M28.4584592,154.069815 C28.8622277,153.672355 29.5198508,153.672355 29.9236193,154.069815 C30.3293867,154.467275 30.3293867,155.110401 29.9236193,155.507862 C29.5198508,155.905322 28.8622277,155.905322 28.4584592,155.507862 C28.0526918,155.110401 28.0526918,154.467275 28.4584592,154.069815" id="Fill-612" fill="#8B9DC2"></path>
        <path d="M45.5804445,137.267437 C45.9862119,136.869977 46.641836,136.869977 47.0456046,137.267437 C47.451372,137.664897 47.451372,138.308023 47.0456046,138.705484 C46.641836,139.102944 45.9862119,139.102944 45.5804445,138.705484 C45.1766759,138.308023 45.1766759,137.664897 45.5804445,137.267437" id="Fill-616" fill="#8B9DC2"></path>
        <path d="M14.5670221,125.916654 C14.9727895,125.519194 15.6284137,125.519194 16.0321822,125.916654 C16.4379496,126.314114 16.4379496,126.957241 16.0321822,127.354701 C15.6284137,127.752161 14.9727895,127.752161 14.5670221,127.354701 C14.1612547,126.957241 14.1612547,126.314114 14.5670221,125.916654" id="Fill-618" fill="#8B9DC2"></path>
        <path d="M70.7370241,145.614499 C71.1427915,145.217039 71.7984157,145.217039 72.2021843,145.614499 C72.6079517,146.011959 72.6079517,146.655086 72.2021843,147.052546 C71.7984157,147.450006 71.1427915,147.450006 70.7370241,147.052546 C70.3312567,146.655086 70.3312567,146.011959 70.7370241,145.614499" id="Fill-620" fill="#8B9DC2"></path>
        <path d="M87.4930192,121.899511 C87.8967877,121.50205 88.5544108,121.50205 88.9581793,121.899511 C89.3639467,122.296971 89.3639467,122.940097 88.9581793,123.337557 C88.5544108,123.735018 87.8967877,123.735018 87.4930192,123.337557 C87.0872518,122.940097 87.0872518,122.296971 87.4930192,121.899511" id="Fill-622" fill="#8B9DC2"></path>
        <path d="M88.5294251,133.599619 C88.9351925,133.202159 89.5908167,133.202159 89.9945852,133.599619 C90.4003526,133.997079 90.4003526,134.640205 89.9945852,135.037665 C89.5908167,135.435126 88.9351925,135.435126 88.5294251,135.037665 C88.1236577,134.640205 88.1236577,133.997079 88.5294251,133.599619" id="Fill-626" fill="#8B9DC2"></path>
        <path d="M19.4782069,102.787869 C19.8819754,102.390409 20.5395985,102.390409 20.943367,102.787869 C21.3491344,103.185329 21.3491344,103.828456 20.943367,104.225916 C20.5395985,104.623376 19.8819754,104.623376 19.4782069,104.225916 C19.0724395,103.828456 19.0724395,103.185329 19.4782069,102.787869" id="Fill-628" fill="#8B9DC2"></path>
        <path d="M89.4323076,55.5336532 C89.838075,55.136193 90.4936991,55.136193 90.8974677,55.5336532 C91.3032351,55.9311133 91.3032351,56.5742398 90.8974677,56.9716999 C90.4936991,57.36916 89.838075,57.36916 89.4323076,56.9716999 C89.0265401,56.5742398 89.0265401,55.9311133 89.4323076,55.5336532" id="Fill-630" fill="#8B9DC2"></path>
        <path d="M135.398159,54.1976678 C135.803926,53.8002076 136.45955,53.8002076 136.863319,54.1976678 C137.269086,54.5951279 137.269086,55.2382544 136.863319,55.6357145 C136.45955,56.0331747 135.803926,56.0331747 135.398159,55.6357145 C134.992391,55.2382544 134.992391,54.5951279 135.398159,54.1976678" id="Fill-632" fill="#8B9DC2"></path>
        <path d="M84.6636411,11.4471344 C85.0694085,11.0496743 85.7250326,11.0496743 86.1288012,11.4471344 C86.5345686,11.8445946 86.5345686,12.487721 86.1288012,12.8851812 C85.7250326,13.2826413 85.0694085,13.2826413 84.6636411,12.8851812 C84.2578737,12.487721 84.2578737,11.8445946 84.6636411,11.4471344" id="Fill-634" fill="#8B9DC2"></path>
        <path d="M24.6872209,31.7281873 C25.0909895,31.3307272 25.7486125,31.3307272 26.1523811,31.7281873 C26.5581485,32.1256475 26.5581485,32.7687739 26.1523811,33.1662341 C25.7486125,33.5636942 25.0909895,33.5636942 24.6872209,33.1662341 C24.2814535,32.7687739 24.2814535,32.1256475 24.6872209,31.7281873" id="Fill-638" fill="#8B9DC2"></path>
        <path d="M35.550194,46.632743 C35.9559614,46.2352828 36.6115856,46.2352828 37.0153542,46.632743 C37.4211216,47.0302031 37.4211216,47.6733296 37.0153542,48.0707897 C36.6115856,48.4682499 35.9559614,48.4682499 35.550194,48.0707897 C35.1444266,47.6733296 35.1444266,47.0302031 35.550194,46.632743" id="Fill-640" fill="#8B9DC2"></path>
        <path d="M17.8131613,11.4880788 C18.2189287,11.0906187 18.8745529,11.0906187 19.2783214,11.4880788 C19.6840888,11.8855389 19.6840888,12.5286654 19.2783214,12.9261255 C18.8745529,13.3235857 18.2189287,13.3235857 17.8131613,12.9261255 C17.4073939,12.5286654 17.4073939,11.8855389 17.8131613,11.4880788" id="Fill-658" fill="#8B9DC2"></path>
        <path d="M0.676584392,6.31630344 C1.08035294,5.9188433 1.73797598,5.9188433 2.14174453,6.31630344 C2.54751193,6.71376359 2.54751193,7.35689005 2.14174453,7.75435019 C1.73797598,8.15181034 1.08035294,8.15181034 0.676584392,7.75435019 C0.270816987,7.35689005 0.270816987,6.71376359 0.676584392,6.31630344" id="Fill-660" fill="#8B9DC2"></path>
        <path d="M9.50652287,71.9733237 C9.91229027,71.5758636 10.5679145,71.5758636 10.971683,71.9733237 C11.3774504,72.3707838 11.3774504,73.0139103 10.971683,73.4113704 C10.5679145,73.8088306 9.91229027,73.8088306 9.50652287,73.4113704 C9.10075546,73.0139103 9.10075546,72.3707838 9.50652287,71.9733237" id="Fill-717" fill="#A0A8BE"></path>
        <path d="M15.8954606,37.584433 C16.1393208,37.340764 16.5350939,37.340764 16.7789541,37.584433 C17.0228144,37.828102 17.0228144,38.2235649 16.7789541,38.4672339 C16.5350939,38.7109029 16.1393208,38.7109029 15.8954606,38.4672339 C15.6516004,38.2235649 15.6516004,37.828102 15.8954606,37.584433" id="Fill-745" fill="#9FA0CC"></path>
        <path d="M131.831803,120.7293 C132.075663,120.485631 132.471437,120.485631 132.715297,120.7293 C132.959157,120.972969 132.959157,121.368432 132.715297,121.612101 C132.471437,121.85577 132.075663,121.85577 131.831803,121.612101 C131.587943,121.368432 131.587943,120.972969 131.831803,120.7293" id="Fill-747" fill="#9FA0CC"></path>
        <path d="M122.01523,180.578609 C122.25909,180.33494 122.654864,180.33494 122.898724,180.578609 C123.142584,180.822278 123.142584,181.217741 122.898724,181.46141 C122.654864,181.705079 122.25909,181.705079 122.01523,181.46141 C121.77137,181.217741 121.77137,180.822278 122.01523,180.578609" id="Fill-749" fill="#9FA0CC"></path>
        <path d="M101.938739,176.040972 C102.182599,175.797303 102.578372,175.797303 102.822232,176.040972 C103.066092,176.284641 103.066092,176.680104 102.822232,176.923773 C102.578372,177.167442 102.182599,177.167442 101.938739,176.923773 C101.694878,176.680104 101.694878,176.284641 101.938739,176.040972" id="Fill-751" fill="#9FA0CC"></path>
        <path d="M118.654757,245.143313 C118.898617,244.899644 119.29439,244.899644 119.53825,245.143313 C119.78211,245.386982 119.78211,245.782445 119.53825,246.026114 C119.29439,246.269783 118.898617,246.269783 118.654757,246.026114 C118.410896,245.782445 118.410896,245.386982 118.654757,245.143313" id="Fill-753" fill="#9FA0CC"></path>
        <path d="M6.39490652,249.779615 C6.63876673,249.535946 7.03453986,249.535946 7.27840008,249.779615 C7.52226029,250.023284 7.52226029,250.418747 7.27840008,250.662416 C7.03453986,250.906085 6.63876673,250.906085 6.39490652,250.662416 C6.1510463,250.418747 6.1510463,250.023284 6.39490652,249.779615" id="Fill-782" fill-opacity="0.581974638" fill="#B3BEC8"></path>
        <path d="M51.355534,220.066973 C51.5993943,219.823304 51.9951674,219.823304 52.2390276,220.066973 C52.4828878,220.310642 52.4828878,220.706105 52.2390276,220.949774 C51.9951674,221.193443 51.5993943,221.193443 51.355534,220.949774 C51.1116738,220.706105 51.1116738,220.310642 51.355534,220.066973" id="Fill-786" fill-opacity="0.581974638" fill="#B3BEC8"></path>
        <path d="M15.8954606,201.5677 C16.1393208,201.324031 16.5350939,201.324031 16.7789541,201.5677 C17.0228144,201.811369 17.0228144,202.206832 16.7789541,202.450501 C16.5350939,202.69417 16.1393208,202.69417 15.8954606,202.450501 C15.6516004,202.206832 15.6516004,201.811369 15.8954606,201.5677" id="Fill-788" fill-opacity="0.581974638" fill="#B3BEC8"></path>
        <path d="M98.1958841,213.024938 C98.4397443,212.781269 98.8355174,212.781269 99.0793776,213.024938 C99.3232378,213.268607 99.3232378,213.66407 99.0793776,213.907739 C98.8355174,214.151408 98.4397443,214.151408 98.1958841,213.907739 C97.9520239,213.66407 97.9520239,213.268607 98.1958841,213.024938" id="Fill-790" fill-opacity="0.581974638" fill="#B3BEC8"></path>
        <path d="M80.8972001,216.720119 C81.1410603,216.47645 81.5368334,216.47645 81.7806936,216.720119 C82.0245538,216.965785 82.0245538,217.359251 81.7806936,217.60292 C81.5368334,217.846589 81.1410603,217.846589 80.8972001,217.60292 C80.6533399,217.359251 80.6533399,216.965785 80.8972001,216.720119" id="Fill-792" fill-opacity="0.581974638" fill="#B3BEC8"></path>
        <path d="M204.481559,9.22555191 C204.725419,8.98188288 205.121192,8.98188288 205.365052,9.22555191 C205.608912,9.46922094 205.608912,9.8646838 205.365052,10.1083528 C205.121192,10.3520219 204.725419,10.3520219 204.481559,10.1083528 C204.237698,9.8646838 204.237698,9.46922094 204.481559,9.22555191" id="Fill-856" fill-opacity="0.581974638" fill="#B3BEC8"></path>
        <path d="M92.632673,113.902573 C92.8765332,113.658904 93.2723064,113.658904 93.5161666,113.902573 C93.7600268,114.146242 93.7600268,114.541704 93.5161666,114.785374 C93.2723064,115.029043 92.8765332,115.029043 92.632673,114.785374 C92.3888128,114.541704 92.3888128,114.146242 92.632673,113.902573" id="Fill-906" fill-opacity="0.581974638" fill="#B3BEC8"></path>
        <path d="M95.2345816,87.7876436 C95.4784418,87.5439746 95.8742149,87.5439746 96.1180751,87.7876436 C96.3619353,88.0313127 96.3619353,88.4267755 96.1180751,88.6704446 C95.8742149,88.9141136 95.4784418,88.9141136 95.2345816,88.6704446 C94.9907213,88.4267755 94.9907213,88.0313127 95.2345816,87.7876436" id="Fill-908" fill-opacity="0.581974638" fill="#B3BEC8"></path>
        <path d="M112.284408,13.302015 C112.528268,13.058346 112.924042,13.058346 113.167902,13.302015 C113.411762,13.545684 113.411762,13.9411469 113.167902,14.1848159 C112.924042,14.4284849 112.528268,14.4284849 112.284408,14.1848159 C112.040548,13.9411469 112.040548,13.545684 112.284408,13.302015" id="Fill-910" fill-opacity="0.581974638" fill="#B3BEC8"></path>
        <path d="M46.8385233,170.424601 C47.0823835,170.180932 47.4781566,170.180932 47.7220169,170.424601 C47.9658771,170.66827 47.9658771,171.063732 47.7220169,171.307402 C47.4781566,171.551071 47.0823835,171.551071 46.8385233,171.307402 C46.5946631,171.063732 46.5946631,170.66827 46.8385233,170.424601" id="Fill-932" fill-opacity="0.581974638" fill="#B3BEC8"></path>
        <path d="M122.01523,155.006942 C122.25909,154.763273 122.654864,154.763273 122.898724,155.006942 C123.142584,155.250611 123.142584,155.646074 122.898724,155.889743 C122.654864,156.133412 122.25909,156.133412 122.01523,155.889743 C121.77137,155.646074 121.77137,155.250611 122.01523,155.006942" id="Fill-934" fill-opacity="0.581974638" fill="#B3BEC8"></path>
        <path d="M106.152323,151.293186 C106.396183,151.049517 106.791957,151.049517 107.035817,151.293186 C107.279677,151.536855 107.279677,151.932318 107.035817,152.175987 C106.791957,152.419656 106.396183,152.419656 106.152323,152.175987 C105.908463,151.932318 105.908463,151.536855 106.152323,151.293186" id="Fill-936" fill-opacity="0.581974638" fill="#B3BEC8"></path>
        <path d="M130.187346,26.1994968 C130.431206,25.9558277 130.826979,25.9558277 131.070839,26.1994968 C131.3147,26.4431658 131.3147,26.8386287 131.070839,27.0822977 C130.826979,27.3259667 130.431206,27.3259667 130.187346,27.0822977 C129.943486,26.8386287 129.943486,26.4431658 130.187346,26.1994968" id="Fill-938" fill-opacity="0.581974638" fill="#B3BEC8"></path>
        <path d="M113.787547,34.9112639 C114.031407,34.6675948 114.42718,34.6675948 114.67104,34.9112639 C114.9149,35.1549329 114.9149,35.5503957 114.67104,35.7940648 C114.42718,36.0377338 114.031407,36.0377338 113.787547,35.7940648 C113.543686,35.5503957 113.543686,35.1549329 113.787547,34.9112639" id="Fill-940" fill-opacity="0.581974638" fill="#B3BEC8"></path>
        <path d="M55.0634086,9.48579842 C55.6730591,8.87662584 56.662492,8.87662584 57.2721425,9.48579842 C57.881793,10.094971 57.881793,11.0836281 57.2721425,11.6928007 C56.662492,12.3019733 55.6730591,12.3019733 55.0634086,11.6928007 C54.4537581,11.0836281 54.4537581,10.094971 55.0634086,9.48579842" id="Fill-952" fill="#81B0D4"></path>
        <path d="M7.9526136,94.9011815 C8.56226414,94.292009 9.55169697,94.292009 10.1613475,94.9011815 C10.770998,95.5103541 10.770998,96.4990113 10.1613475,97.1081838 C9.55169697,97.7173564 8.56226414,97.7173564 7.9526136,97.1081838 C7.34296307,96.4990113 7.34296307,95.5103541 7.9526136,94.9011815" id="Fill-962" fill="#81B0D4"></path>
        <path d="M64.4144484,33.6250109 C65.0240989,33.0158384 66.0135317,33.0158384 66.6231823,33.6250109 C67.2328328,34.2341835 67.2328328,35.2228407 66.6231823,35.8320132 C66.0135317,36.4411858 65.0240989,36.4411858 64.4144484,35.8320132 C63.8047978,35.2228407 63.8047978,34.2341835 64.4144484,33.6250109" id="Fill-970" fill="#81B0D4"></path>
        <path d="M114.869926,77.6725826 C115.479577,77.06341 116.469009,77.06341 117.076661,77.6725826 C117.688311,78.2817552 117.688311,79.2704123 117.076661,79.8795849 C116.469009,80.4887575 115.479577,80.4887575 114.869926,79.8795849 C114.260276,79.2704123 114.260276,78.2817552 114.869926,77.6725826" id="Fill-972" fill="#81B0D4"></path>
        <path d="M113.453738,104.166796 C114.063388,103.557624 115.052821,103.557624 115.662472,104.166796 C116.272122,104.775969 116.272122,105.764626 115.662472,106.373799 C115.052821,106.982971 114.063388,106.982971 113.453738,106.373799 C112.844087,105.764626 112.844087,104.775969 113.453738,104.166796" id="Fill-974" fill="#81B0D4"></path>
        <path d="M62.5872957,81.4983861 C63.1969463,80.8892135 64.1863791,80.8892135 64.7960296,81.4983861 C65.4056802,82.1075587 65.4056802,83.0962158 64.7960296,83.7053884 C64.1863791,84.314561 63.1969463,84.314561 62.5872957,83.7053884 C61.9776452,83.0962158 61.9776452,82.1075587 62.5872957,81.4983861" id="Fill-980" fill="#81B0D4"></path>
        <path d="M71.9355371,237.067482 C72.5451876,236.458309 73.5346205,236.458309 74.1422722,237.067482 C74.7539215,237.676654 74.7539215,238.665312 74.1422722,239.274484 C73.5346205,239.883657 72.5451876,239.883657 71.9355371,239.274484 C71.3258866,238.665312 71.3258866,237.676654 71.9355371,237.067482" id="Fill-982" fill="#81B0D4"></path>
        <path d="M10.5907014,238.627763 C11.2003519,238.01859 12.1897848,238.01859 12.7974364,238.627763 C13.4090858,239.236935 13.4090858,240.225592 12.7974364,240.834765 C12.1897848,241.443937 11.2003519,241.443937 10.5907014,240.834765 C9.98105086,240.225592 9.98105086,239.236935 10.5907014,238.627763" id="Fill-1000" fill="#81B0D4"></path>
        <path d="M32.7509986,192.38677 C33.3606491,191.777598 34.350082,191.777598 34.9597325,192.38677 C35.569383,192.995943 35.569383,193.9846 34.9597325,194.593772 C34.350082,195.202945 33.3606491,195.202945 32.7509986,194.593772 C32.1413481,193.9846 32.1413481,192.995943 32.7509986,192.38677" id="Fill-1004" fill="#81B0D4"></path>
        <path d="M128.493917,213.709408 C129.103567,213.100236 130.093,213.100236 130.70265,213.709408 C131.312301,214.318581 131.312301,215.307238 130.70265,215.916411 C130.093,216.525583 129.103567,216.525583 128.493917,215.916411 C127.884266,215.307238 127.884266,214.318581 128.493917,213.709408" id="Fill-1006" fill="#81B0D4"></path>
        <path d="M234.95529,0.836546416 C235.199151,0.592877384 235.594924,0.592877384 235.838784,0.836546416 C236.082644,1.08021545 236.082644,1.4756783 235.838784,1.71934734 C235.594924,1.96301637 235.199151,1.96301637 234.95529,1.71934734 C234.71143,1.4756783 234.71143,1.08021545 234.95529,0.836546416" id="Fill-1048" fill="#C3CCD9"></path>
        <path d="M230.319348,28.8209361 C230.563208,28.5772671 230.958981,28.5772671 231.202841,28.8209361 C231.446702,29.0646052 231.446702,29.460068 231.202841,29.7037371 C230.958981,29.9454088 230.563208,29.9454088 230.319348,29.7037371 C230.075488,29.460068 230.075488,29.0646052 230.319348,28.8209361" id="Fill-1050" fill="#C3CCD9"></path>
        <path d="M242.646282,47.0150237 C242.890142,46.7713547 243.285915,46.7713547 243.529775,47.0150237 C243.771637,47.2586928 243.771637,47.6541556 243.529775,47.8978246 C243.285915,48.1414937 242.890142,48.1414937 242.646282,47.8978246 C242.402422,47.6541556 242.402422,47.2586928 242.646282,47.0150237" id="Fill-1052" fill="#C3CCD9"></path>
        <path d="M216.380138,42.9403582 C216.623998,42.6966892 217.019771,42.6966892 217.263632,42.9403582 C217.507492,43.1840272 217.507492,43.5794901 217.263632,43.8231591 C217.019771,44.0668282 216.623998,44.0668282 216.380138,43.8231591 C216.136278,43.5794901 216.136278,43.1840272 216.380138,42.9403582" id="Fill-1054" fill="#C3CCD9"></path>
        <path d="M194.772324,69.8745744 C195.016184,69.6309053 195.411958,69.6309053 195.655818,69.8745744 C195.899678,70.1182434 195.899678,70.5137062 195.655818,70.7573753 C195.411958,71.0010443 195.016184,71.0010443 194.772324,70.7573753 C194.528464,70.5137062 194.528464,70.1182434 194.772324,69.8745744" id="Fill-1056" fill="#C3CCD9"></path>
        <path d="M217.576652,92.8403807 C217.820512,92.5967116 218.216286,92.5967116 218.460146,92.8403807 C218.704006,93.0840497 218.704006,93.4795126 218.460146,93.7231816 C218.216286,93.9668506 217.820512,93.9668506 217.576652,93.7231816 C217.332792,93.4795126 217.332792,93.0840497 217.576652,92.8403807" id="Fill-1058" fill="#C3CCD9"></path>
        <path d="M189.978272,111.982381 C190.222132,111.738712 190.617906,111.738712 190.861766,111.982381 C191.105626,112.22605 191.105626,112.621513 190.861766,112.865182 C190.617906,113.108851 190.222132,113.108851 189.978272,112.865182 C189.734412,112.621513 189.734412,112.22605 189.978272,111.982381" id="Fill-1060" fill="#C3CCD9"></path>
        <path d="M199.354697,153.758637 C199.598558,153.514968 199.994331,153.514968 200.238191,153.758637 C200.482051,154.002306 200.482051,154.397769 200.238191,154.641438 C199.994331,154.885107 199.598558,154.885107 199.354697,154.641438 C199.110837,154.397769 199.110837,154.002306 199.354697,153.758637" id="Fill-1062" fill="#C3CCD9"></path>
        <path d="M187.677791,184.591758 C187.921651,184.348089 188.317424,184.348089 188.561285,184.591758 C188.803146,184.835427 188.803146,185.23089 188.561285,185.474559 C188.317424,185.718228 187.921651,185.718228 187.677791,185.474559 C187.433931,185.23089 187.433931,184.835427 187.677791,184.591758" id="Fill-1064" fill="#C3CCD9"></path>
        <path d="M230.701929,220.066973 C230.945789,219.823304 231.341562,219.823304 231.585422,220.066973 C231.829282,220.310642 231.829282,220.706105 231.585422,220.949774 C231.341562,221.193443 230.945789,221.193443 230.701929,220.949774 C230.458068,220.706105 230.458068,220.310642 230.701929,220.066973" id="Fill-1066" fill="#C3CCD9"></path>
        <path d="M185.678937,228.441398 C185.922797,228.197729 186.31857,228.197729 186.56243,228.441398 C186.804292,228.685067 186.804292,229.08053 186.56243,229.324199 C186.31857,229.567868 185.922797,229.567868 185.678937,229.324199 C185.435077,229.08053 185.435077,228.685067 185.678937,228.441398" id="Fill-1068" fill="#C3CCD9"></path>
        <path d="M205.167765,240.640628 C205.411626,240.396959 205.807399,240.396959 206.051259,240.640628 C206.29312,240.884298 206.29312,241.27976 206.051259,241.523429 C205.807399,241.767098 205.411626,241.767098 205.167765,241.523429 C204.923905,241.27976 204.923905,240.884298 205.167765,240.640628" id="Fill-1070" fill="#C3CCD9"></path>
        <polygon id="Fill-1246" fill="#BDCADC" points="104.758522 253.802551 103.966976 255.230611 103.203414 253.816532 101.786226 253.051571 103.217406 252.260645 104.008952 250.832585 104.772514 252.246664 106.189702 253.011625"></polygon>
        <polygon id="Fill-1248" fill="#BDCADC" points="132.57058 71.738243 131.779033 73.1683006 131.013472 71.752224 129.598283 70.9892603 131.029463 70.1983346 131.821009 68.768277 132.584572 70.1843536 134.001759 70.9473173"></polygon>
        <polygon id="Fill-1252" fill="#BDCADC" points="123.165971 49.3692261 122.374424 50.7972864 121.610862 49.3832071 120.193674 48.6182461 121.624854 47.8273204 122.4164 46.3992601 123.179963 47.8133394 124.59715 48.5783004"></polygon>
        <polygon id="Fill-1258" fill="#BDCADC" points="141.140067 44.5387871 140.348521 45.9668474 139.58296 44.5527681 138.167771 43.7878071 139.596952 42.9988787 140.388498 41.5688211 141.154059 42.9848977 142.569248 43.7478614"></polygon>
        <polygon id="Fill-1278" fill="#BDCADC" points="62.0192214 103.403233 61.2276751 104.831294 60.4621139 103.417215 59.0469252 102.652254 60.4781048 101.861328 61.2676522 100.433267 62.0332133 101.847347 63.4484021 102.612308"></polygon>
        <polygon id="Fill-1280" fill="#BDCADC" points="66.6827481 113.666693 65.8912019 115.094753 65.1256407 113.680674 63.7104519 112.915713 65.1396327 112.124787 65.9311789 110.696727 66.6967401 112.110806 68.1119289 112.875767"></polygon>
        <polygon id="Fill-1282" fill="#BDCADC" points="83.9140707 127.160964 83.1225245 128.589024 82.3569633 127.174945 80.9417745 126.409984 82.3709553 125.619058 83.1625016 124.190998 83.9280627 125.605077 85.3432515 126.370038"></polygon>
        <polygon id="Fill-1284" fill="#BDCADC" points="94.7632517 147.180772 93.9717055 148.608832 93.2061443 147.194753 91.7909555 146.429792 93.2221351 145.638866 94.0116825 144.210806 94.7772437 145.624885 96.1924325 146.389846"></polygon>
        <polygon id="Fill-1288" fill="#BDCADC" points="74.4009239 167.876262 73.6093776 169.304322 72.8458153 167.890243 71.4286277 167.125282 72.8598073 166.336354 73.6513536 164.906296 74.4149159 166.320375 75.8321035 167.085336"></polygon>
        <polygon id="Fill-1290" fill="#BDCADC" points="54.9774579 164.793449 54.1859116 166.22151 53.4203504 164.80743 52.0051617 164.042469 53.4363413 163.253541 54.2258887 161.823483 54.9914499 163.237563 56.4066386 164.002523"></polygon>
        <polygon id="Fill-1292" fill="#BDCADC" points="51.4726669 179.015332 50.6811206 180.443392 49.9175583 179.029313 48.5003707 178.264352 49.9315503 177.473426 50.7230966 176.045366 51.4866589 177.459445 52.9038465 178.224406"></polygon>
        <polygon id="Fill-1294" fill="#BDCADC" points="81.8058792 186.906014 81.0143329 188.336072 80.2487718 186.919995 78.833583 186.157032 80.2627637 185.366106 81.05431 183.936048 81.8198712 185.352125 83.23506 186.115089"></polygon>
        <polygon id="Fill-1298" fill="#BDCADC" points="94.9077689 186.129669 94.1162226 187.557729 93.3506615 186.14365 91.9354727 185.378689 93.3666523 184.587763 94.1581986 183.159703 94.9217609 184.573782 96.3389485 185.338743"></polygon>
        <polygon id="Fill-1302" fill="#BDCADC" points="47.5792987 70.3671054 46.7877524 71.7951657 46.0221912 70.3810864 44.6070025 69.6161254 46.0361832 68.827197 46.8277295 67.3971394 47.5932906 68.8112187 49.0084794 69.5761797"></polygon>
        <polygon id="Fill-1304" fill="#BDCADC" points="41.7390464 66.5411021 40.9475002 67.9691624 40.181939 66.5550831 38.7667502 65.7901221 40.195931 65.0011937 40.9874773 63.5711361 41.7530384 64.9872127 43.1682272 65.7501764"></polygon>
        <polygon id="Fill-1310" fill="#BDCADC" points="26.6051216 75.8888054 25.8135753 77.3168657 25.0480141 75.9027864 23.6328253 75.1398227 25.064005 74.348897 25.8535524 72.9188394 26.6191135 74.334916 28.0343023 75.0978797"></polygon>
        <polygon id="Fill-1482" fill="#BDCADC" points="245.490252 54.8909261 244.698705 56.3189865 243.933144 54.9049072 242.517955 54.1399462 243.949135 53.3510178 244.738682 51.9209602 245.504243 53.3350395 246.919432 54.1000004"></polygon>
        <polygon id="Fill-1484" fill="#BDCADC" points="231.532452 45.6544717 230.740906 47.082532 229.975345 45.6684527 228.560156 44.9034917 229.989337 44.112566 230.780883 42.6845057 231.546444 44.098585 232.961633 44.863546"></polygon>
        <polygon id="Fill-1486" fill="#BDCADC" points="233.733391 23.4805898 232.941845 24.9086501 232.178282 23.4945708 230.761095 22.7296098 232.192274 21.9406814 232.98382 20.5106238 233.747383 21.9247031 235.162572 22.6896641"></polygon>
        <polygon id="Fill-1488" fill="#BDCADC" points="251.663513 21.2813769 250.871967 22.7094372 250.106405 21.2953579 248.691217 20.5303969 250.120397 19.7414685 250.911944 18.3114109 251.677505 19.7254902 253.092694 20.4904512"></polygon>
        <polygon id="Fill-1492" fill="#BDCADC" points="173.787353 24.7288942 172.995807 26.1569545 172.230246 24.7428752 170.815057 23.9779143 172.244238 23.1889858 173.035784 21.7589282 173.801345 23.1730075 175.216534 23.9379685"></polygon>
        <polygon id="Fill-1494" fill="#BDCADC" points="162.510617 17.3375337 161.719071 18.765594 160.95351 17.3515147 159.538321 16.5865537 160.967502 15.7976253 161.759048 14.3675677 162.524609 15.781647 163.939798 16.546608"></polygon>
        <polygon id="Fill-1496" fill="#BDCADC" points="157.012769 30.0322908 156.221223 31.4603511 155.455661 30.0462718 154.040473 29.2813108 155.469653 28.4923824 156.2612 27.0623248 157.026761 28.4784014 158.44195 29.2413651"></polygon>
        <polygon id="Fill-1498" fill="#BDCADC" points="173.787353 79.9409016 172.995807 81.3689619 172.230246 79.9548826 170.815057 79.1899216 172.244238 78.4009932 173.035784 76.9709356 173.801345 78.3850149 175.216534 79.1499759"></polygon>
        <polygon id="Fill-1500" fill="#BDCADC" points="170.974366 98.3359163 170.182819 99.7639766 169.417258 98.3498973 168.00207 97.5849363 169.433249 96.7960079 170.222797 95.3659503 170.988358 96.7800296 172.403547 97.5449905"></polygon>
        <polygon id="Fill-1502" fill="#BDCADC" points="161.414446 117.167738 160.622899 118.595798 159.859337 117.181719 158.44215 116.416758 159.873329 115.625832 160.662877 114.197772 161.428438 115.611851 162.843626 116.376812"></polygon>
        <polygon id="Fill-1504" fill="#BDCADC" points="177.237376 117.167738 176.445829 118.595798 175.680268 117.181719 174.265079 116.416758 175.696259 115.625832 176.485806 114.197772 177.251368 115.611851 178.666556 116.376812"></polygon>
        <polygon id="Fill-1506" fill="#BDCADC" points="188.889896 106.04125 188.09835 107.469311 187.334788 106.055231 185.9176 105.29027 187.34878 104.501342 188.138327 103.071284 188.903888 104.485364 190.319077 105.250325"></polygon>
        <polygon id="Fill-1508" fill="#BDCADC" points="227.079005 117.167738 226.287459 118.595798 225.521898 117.181719 224.106709 116.416758 225.537889 115.625832 226.327436 114.197772 227.092997 115.611851 228.508186 116.376812"></polygon>
        <polygon id="Fill-1512" fill="#BDCADC" points="249.461775 121.941454 248.670229 123.369514 247.904668 121.955435 246.489479 121.190474 247.920658 120.401545 248.712205 118.971488 249.475767 120.385567 250.892955 121.150528"></polygon>
        <polygon id="Fill-1540" fill="#BDCADC" points="198.366864 170.792101 197.575317 172.220162 196.809756 170.806082 195.394568 170.041121 196.823748 169.250196 197.615295 167.822135 198.380856 169.236215 199.796044 170.001176"></polygon>
        <polygon id="Fill-1544" fill="#BDCADC" points="218.165115 184.046698 217.373569 185.476756 216.608007 184.060679 215.192819 183.297715 216.621999 182.50679 217.413546 181.076732 218.179107 182.492809 219.594296 183.255772"></polygon>
        <polygon id="Fill-1548" fill="#BDCADC" points="207.957166 200.082517 207.16562 201.510578 206.400059 200.096498 204.98487 199.331537 206.414051 198.542609 207.205597 197.112551 207.971158 198.526631 209.386347 199.291592"></polygon>
        <polygon id="Fill-1550" fill="#BDCADC" points="195.360787 196.460437 194.569241 197.888497 193.803679 196.474418 192.388491 195.709457 193.817671 194.920529 194.609218 193.490471 195.374779 194.90455 196.789968 195.669511"></polygon>
        <polygon id="Fill-1572" fill="#BDCADC" points="239.079926 246.572971 238.28838 248.001031 237.522819 246.586952 236.10763 245.821991 237.536811 245.031065 238.328357 243.603005 239.093918 245.017084 240.509107 245.782045"></polygon>
        <polygon id="Fill-1574" fill="#BDCADC" points="236.877988 233.186953 236.086442 234.615013 235.320881 233.200934 233.905692 232.435973 235.336872 231.645047 236.126419 230.216987 236.89198 231.631066 238.307169 232.396027"></polygon>
        <path d="M242.979091,72.9543911 C243.384858,72.5489419 244.040483,72.5489419 244.444251,72.9543911 C244.850019,73.3598404 244.850019,74.0149506 244.444251,74.4184026 C244.040483,74.8238519 243.384858,74.8238519 242.979091,74.4184026 C242.573324,74.0149506 242.573324,73.3598404 242.979091,72.9543911" id="Fill-1672" fill="#C6D5DE"></path>
        <path d="M202.050352,34.3895725 C202.454121,33.9841232 203.111744,33.9841232 203.515512,34.3895725 C203.92128,34.7950217 203.92128,35.4501319 203.515512,35.8535839 C203.111744,36.2590332 202.454121,36.2590332 202.050352,35.8535839 C201.644585,35.4501319 201.644585,34.7950217 202.050352,34.3895725" id="Fill-1674" fill="#C6D5DE"></path>
        <path d="M176.023272,48.5333614 C176.429039,48.1279121 177.084663,48.1279121 177.490431,48.5333614 C177.896198,48.9388107 177.896198,49.5939209 177.490431,49.9973729 C177.084663,50.4028222 176.429039,50.4028222 176.023272,49.9973729 C175.617504,49.5939209 175.617504,48.9388107 176.023272,48.5333614" id="Fill-1676" fill="#C6D5DE"></path>
        <path d="M218.211089,62.7913952 C218.616856,62.3859459 219.27248,62.3859459 219.678248,62.7913952 C220.084015,63.1968445 220.084015,63.8519547 219.678248,64.257404 C219.27248,64.660856 218.616856,64.660856 218.211089,64.257404 C217.805321,63.8519547 217.805321,63.1968445 218.211089,62.7913952" id="Fill-1678" fill="#C6D5DE"></path>
        <path d="M198.439222,92.3488483 C198.84499,91.943399 199.500614,91.943399 199.904382,92.3488483 C200.31015,92.7542976 200.31015,93.4094078 199.904382,93.8148571 C199.500614,94.2183091 198.84499,94.2183091 198.439222,93.8148571 C198.033455,93.4094078 198.033455,92.7542976 198.439222,92.3488483" id="Fill-1680" fill="#C6D5DE"></path>
        <path d="M135.398159,94.383285 C135.803926,93.9778357 136.45955,93.9778357 136.863319,94.383285 C137.269086,94.7887343 137.269086,95.4438445 136.863319,95.8492938 C136.45955,96.254743 135.803926,96.254743 135.398159,95.8492938 C134.992391,95.4438445 134.992391,94.7887343 135.398159,94.383285" id="Fill-1682" fill="#C6D5DE"></path>
        <path d="M143.73418,150.589142 C144.139948,150.183693 144.795572,150.183693 145.201339,150.589142 C145.607107,150.994592 145.607107,151.649702 145.201339,152.053154 C144.795572,152.458603 144.139948,152.458603 143.73418,152.053154 C143.328413,151.649702 143.328413,150.994592 143.73418,150.589142" id="Fill-1684" fill="#C6D5DE"></path>
        <path d="M169.470428,143.477802 C169.874196,143.072352 170.531819,143.072352 170.935588,143.477802 C171.341355,143.883251 171.341355,144.538361 170.935588,144.941813 C170.531819,145.347262 169.874196,145.347262 169.470428,144.941813 C169.06466,144.538361 169.06466,143.883251 169.470428,143.477802" id="Fill-1686" fill="#C6D5DE"></path>
        <path d="M195.105133,130.149105 C195.510901,129.743656 196.166525,129.743656 196.572292,130.149105 C196.97806,130.552557 196.97806,131.209665 196.572292,131.613117 C196.166525,132.018566 195.510901,132.018566 195.105133,131.613117 C194.699366,131.209665 194.699366,130.552557 195.105133,130.149105" id="Fill-1688" fill="#C6D5DE"></path>
        <path d="M234.038816,141.076663 C234.444583,140.671214 235.100207,140.671214 235.505975,141.076663 C235.911742,141.480115 235.911742,142.137222 235.505975,142.540674 C235.100207,142.946124 234.444583,142.946124 234.038816,142.540674 C233.633048,142.137222 233.633048,141.480115 234.038816,141.076663" id="Fill-1690" fill="#C6D5DE"></path>
        <path d="M251.304326,185.304087 C251.710093,184.898638 252.365717,184.898638 252.769486,185.304087 C253.175253,185.709536 253.175253,186.364646 252.769486,186.768098 C252.365717,187.173548 251.710093,187.173548 251.304326,186.768098 C250.898558,186.364646 250.898558,185.709536 251.304326,185.304087" id="Fill-1720" fill="#C6D5DE"></path>
        <path d="M250.158576,204.408641 C250.564343,204.003192 251.219967,204.003192 251.625735,204.408641 C252.031502,204.81409 252.031502,205.469201 251.625735,205.872653 C251.219967,206.278102 250.564343,206.278102 250.158576,205.872653 C249.752808,205.469201 249.752808,204.81409 250.158576,204.408641" id="Fill-1722" fill="#C6D5DE"></path>
        <path d="M168.433023,218.230667 C168.83879,217.825218 169.494414,217.825218 169.900182,218.230667 C170.305949,218.634119 170.305949,219.291227 169.900182,219.694679 C169.494414,220.100128 168.83879,220.100128 168.433023,219.694679 C168.027255,219.291227 168.027255,218.634119 168.433023,218.230667" id="Fill-1724" fill="#C6D5DE"></path>
        <path d="M160.020845,201.901247 C160.426612,201.495798 161.082236,201.495798 161.486005,201.901247 C161.891772,202.304699 161.891772,202.961806 161.486005,203.365258 C161.082236,203.770708 160.426612,203.770708 160.020845,203.365258 C159.615077,202.961806 159.615077,202.304699 160.020845,201.901247" id="Fill-1726" fill="#C6D5DE"></path>
        <path d="M148.990967,219.151217 C149.396735,218.745768 150.052359,218.745768 150.458126,219.151217 C150.863894,219.556666 150.863894,220.211776 150.458126,220.615228 C150.052359,221.020678 149.396735,221.020678 148.990967,220.615228 C148.5852,220.211776 148.5852,219.556666 148.990967,219.151217" id="Fill-1728" fill="#C6D5DE"></path>
        <path d="M169.470428,249.488011 C169.874196,249.082562 170.531819,249.082562 170.935588,249.488011 C171.341355,249.893461 171.341355,250.548571 170.935588,250.95402 C170.531819,251.359469 169.874196,251.359469 169.470428,250.95402 C169.06466,250.548571 169.06466,249.893461 169.470428,249.488011" id="Fill-1730" fill="#C6D5DE"></path>
        <path d="M208.653967,253.86986 C209.057735,253.46441 209.715359,253.46441 210.119127,253.86986 C210.524894,254.275309 210.524894,254.930419 210.119127,255.333871 C209.715359,255.73932 209.057735,255.73932 208.653967,255.333871 C208.2482,254.930419 208.2482,254.275309 208.653967,253.86986" id="Fill-1736" fill="#C6D5DE"></path>
        <path d="M190.847774,250.697369 C191.481411,250.064229 192.510821,250.064229 193.144457,250.697369 C193.778094,251.330509 193.778094,252.359112 193.144457,252.992252 C192.510821,253.625392 191.481411,253.625392 190.847774,252.992252 C190.214137,252.359112 190.214137,251.330509 190.847774,250.697369" id="Fill-1794" fill="#C6D5DE"></path>
        <path d="M162.791656,184.509869 C163.425293,183.876729 164.454703,183.876729 165.08834,184.509869 C165.721977,185.143009 165.721977,186.171612 165.08834,186.804752 C164.454703,187.437892 163.425293,187.437892 162.791656,186.804752 C162.158019,186.171612 162.158019,185.143009 162.791656,184.509869" id="Fill-1796" fill="#C6D5DE"></path>
        <path d="M183.395046,148.723477 C184.028683,148.090336 185.058093,148.090336 185.691729,148.723477 C186.325366,149.356617 186.325366,150.385219 185.691729,151.018359 C185.058093,151.651499 184.028683,151.651499 183.395046,151.018359 C182.761409,150.385219 182.761409,149.356617 183.395046,148.723477" id="Fill-1798" fill="#C6D5DE"></path>
        <path d="M239.360965,164.065039 C239.994602,163.431899 241.024012,163.431899 241.657648,164.065039 C242.291285,164.698179 242.291285,165.726781 241.657648,166.359922 C241.024012,166.995059 239.994602,166.995059 239.360965,166.359922 C238.727328,165.726781 238.727328,164.698179 239.360965,164.065039" id="Fill-1800" fill="#C6D5DE"></path>
        <path d="M196.447164,41.5370643 C197.080801,40.9039242 198.110211,40.9039242 198.743848,41.5370643 C199.377484,42.1702043 199.377484,43.1988072 198.743848,43.8319472 C198.110211,44.4650872 197.080801,44.4650872 196.447164,43.8319472 C195.813527,43.1988072 195.813527,42.1702043 196.447164,41.5370643" id="Fill-1814" fill="#C6D5DE"></path>
        <path d="M181.770977,0.754657643 C182.404614,0.121517616 183.434024,0.121517616 184.06766,0.754657643 C184.701297,1.38779767 184.701297,2.41640055 184.06766,3.04954058 C183.434024,3.68268061 182.404614,3.68268061 181.770977,3.04954058 C181.13734,2.41640055 181.13734,1.38779767 181.770977,0.754657643" id="Fill-1824" fill="#C6D5DE"></path>
      </g>
    </g>
  </g>
</svg>